<svg width="1440" height="1021" viewBox="0 0 1440 1021" fill="none" xmlns="http://www.w3.org/2000/svg">
<rect width="1440" height="900" fill="white"/>
<g filter="url(#filter0_i_5_3)">
<path d="M639.987 50.3271L684.832 23.6108C697.958 15.7908 706 1.63935 706 -13.6399C706 -37.587 686.587 -57 662.64 -57H108.046C-17.4247 -57 -119.744 43.5602 -121.919 169.012L-131.775 737.355C-134.068 869.579 -24.6535 976.498 107.483 971.155L1109.17 930.651C1136.18 929.559 1163.17 933.236 1188.9 941.512L1369.55 999.626C1406.45 1011.49 1446.06 991.634 1458.61 954.966C1472.92 913.207 1446.12 868.642 1402.53 861.693L1348 853L1194.29 840.579C1165.64 838.264 1138.65 826.167 1117.86 806.317C1109.99 798.804 1103.13 790.299 1097.45 781.014L1096.66 779.723C1088.29 766.015 1082.39 750.939 1079.24 735.186L1077.28 725.392C1071.18 694.914 1057.82 666.357 1038.34 642.145L1002 597L950.629 539.585C939.575 527.231 927.219 516.109 913.774 506.411L838.332 451.994C820.997 439.489 801.086 431.016 780.056 427.192L759.586 423.47C736.73 419.315 716.325 406.584 702.544 387.881C698.197 381.982 693.154 376.629 687.525 371.937L658.14 347.45C627.887 322.239 604.614 289.683 590.55 252.9L586 241L578.266 216.692C565.413 176.298 571.001 132.294 593.542 96.3953L594.677 94.5889C606.063 76.4557 621.592 61.2856 639.987 50.3271Z" fill="#FBBC30"/>
</g>
<defs>
<filter id="filter0_i_5_3" x="-148.81" y="-57" width="1611.3" height="1064.06" filterUnits="userSpaceOnUse" color-interpolation-filters="sRGB">
<feFlood flood-opacity="0" result="BackgroundImageFix"/>
<feBlend mode="normal" in="SourceGraphic" in2="BackgroundImageFix" result="shape"/>
<feColorMatrix in="SourceAlpha" type="matrix" values="0 0 0 0 0 0 0 0 0 0 0 0 0 0 0 0 0 0 127 0" result="hardAlpha"/>
<feOffset dx="-17" dy="4"/>
<feGaussianBlur stdDeviation="16.5"/>
<feComposite in2="hardAlpha" operator="arithmetic" k2="-1" k3="1"/>
<feColorMatrix type="matrix" values="0 0 0 0 0 0 0 0 0 0 0 0 0 0 0 0 0 0 0.06 0"/>
<feBlend mode="normal" in2="shape" result="effect1_innerShadow_5_3"/>
</filter>
</defs>
</svg>
