<svg width="1440" height="561" viewBox="0 0 1440 561" fill="none" xmlns="http://www.w3.org/2000/svg">
<path d="M224 35L26.7434 1.83297C8.18437 -1.28758 -10.88 2.27251 -27.0621 11.8806C-51.2022 26.2138 -66 52.2097 -66 80.2842V200.15C-66 240.974 -46.7791 279.416 -14.1198 303.91C-6.06729 309.95 1.25478 316.906 7.69861 324.638L44.877 369.252C79.8243 411.189 123.944 444.531 173.829 466.702C207.08 481.48 242.399 491.075 278.557 495.153L454.219 514.965C477.696 517.612 501.462 514.318 523.334 505.385C586.296 479.668 669.445 508.576 736.867 499.635C756.736 497 779.704 490.148 806 477C923.32 418.34 1126.58 470.68 1148.13 476.489C1149.46 476.846 1150.66 477.177 1151.99 477.532L1453.17 558.152C1500.01 570.69 1546 535.393 1546 486.904C1546 480.331 1545.12 473.787 1543.39 467.446L1507.82 337.406C1491.06 276.129 1454.86 221.946 1404.67 183.004C1379.07 163.139 1350.35 147.653 1319.68 137.175L1234.26 107.988C1162.73 83.5494 1087.23 72.8462 1011.73 76.4415L790 87H491.154C435.982 87 381.073 79.3902 327.98 64.3856L224 35Z" fill="white"/>
</svg>
