<svg width="1440" height="592" viewBox="0 0 1440 592" fill="none" xmlns="http://www.w3.org/2000/svg">
<path d="M1194.75 87.457L1331.4 12.5236C1392.24 -20.8434 1467.38 18.9226 1474 88L1490.55 336.28C1491.5 350.526 1488.81 364.778 1482.73 377.696C1468.86 407.181 1439.2 426 1406.61 426H1362.75C1348.98 426 1335.27 427.856 1322 431.518L1292.42 439.678C1248.77 451.717 1202.88 453.133 1158.58 443.806C1103.44 432.199 1046.1 437.277 993.867 458.394L886 502L762.418 534.415C682.985 555.25 600.121 559.557 518.956 547.07L283.102 510.785C245.697 505.03 207.436 509.249 172.184 523.014L19.6564 582.572C-72.7254 618.645 -168.467 538.336 -149.017 441.087C-147.013 431.067 -146.241 420.839 -146.717 410.631L-147.403 395.943C-154.082 252.815 -33.4732 136.399 109.329 148.137C124.409 149.376 139.572 149.172 154.613 147.527L187.254 143.957C235.56 138.673 284.339 139.477 332.444 146.349L470 166L601.776 171.631C669.304 174.517 736.761 164.48 800.523 142.058C857.099 122.163 916.636 112 976.608 112H1098.96C1132.44 112 1165.39 103.559 1194.75 87.457Z" fill="white"/>
</svg>
